<?xml version="1.0" encoding="utf-8"?>
<!-- Generator: Adobe Illustrator 21.1.0, SVG Export Plug-In . SVG Version: 6.00 Build 0)  -->
<svg version="1.1" id="Layer_1" xmlns="http://www.w3.org/2000/svg" xmlns:xlink="http://www.w3.org/1999/xlink" x="0px" y="0px"
	 viewBox="0 0 512 512" style="enable-background:new 0 0 512 512;" xml:space="preserve">
<style type="text/css">
	.st0{fill:#FF6700;}
</style>
<g>
	<path class="st0" d="M484.1,352.4l-42.4,42.4l-42.4-42.4c-3.2-3.2-7.4-4.8-11.5-4.8c-4.2,0-8.4,1.6-11.5,4.8
		c-6.4,6.4-6.4,16.7,0,23.1l42.4,42.4l-42.4,42.4c-6.4,6.4-6.4,16.7,0,23.1c6.4,6.4,16.7,6.4,23.1,0l42.4-42.4l42.4,42.4
		c6.4,6.4,16.7,6.4,23.1,0c6.4-6.4,6.4-16.7,0-23.1L464.8,418l42.4-42.4c6.4-6.4,6.4-16.7,0-23.1c-3.2-3.2-7.4-4.8-11.5-4.8
		S487.3,349.3,484.1,352.4L484.1,352.4z"/>
	<path class="st0" d="M160.1,159.6c6.4,6.4,16.7,6.4,23.1,0l42.4-42.4l42.4,42.4c6.4,6.4,16.7,6.4,23.1,0c6.4-6.4,6.4-16.7,0-23.1
		L248.8,94l42.4-42.4c6.4-6.4,6.4-16.7,0-23.1c-3.2-3.2-7.4-4.8-11.5-4.8s-8.4,1.6-11.5,4.8l-42.4,42.4l-42.4-42.4
		c-3.2-3.2-7.4-4.8-11.5-4.8c-4.2,0-8.4,1.6-11.5,4.8c-6.4,6.4-6.4,16.7,0,23.1L202.6,94l-42.4,42.4
		C153.8,142.8,153.8,153.2,160.1,159.6L160.1,159.6z"/>
	<path class="st0" d="M158.9,388.6l65.9,57.3c6.8,5.9,17.1,5.2,23-1.6c5.9-6.8,5.2-17.1-1.6-23l-34.9-30.4
		c103.1-13.5,164.1-67.4,198.1-112.9c31.4-42.1,45.1-83.5,50-101.7c-3.3,0.4-6.6,0.7-10,0.7c-8.1,0-15.9-1.3-23.2-3.7
		c-5.5,18-18.2,52.2-43.9,86.2c-42.5,56.4-101.5,89.6-175.7,99.1l32.5-37.4c5.9-6.8,5.2-17.1-1.6-23c-3.1-2.7-6.9-4-10.7-4
		c-4.6,0-9.1,1.9-12.3,5.6l-57.3,65.9C151.3,372.3,152.1,382.7,158.9,388.6L158.9,388.6z"/>
	<path class="st0" d="M449.4,150c26.6,0,48.3-21.6,48.3-48.3S476,53.5,449.4,53.5s-48.3,21.7-48.3,48.3S422.8,150,449.4,150
		L449.4,150z"/>
	<path class="st0" d="M48.3,427.7c26.6,0,48.3-21.6,48.3-48.3c0-26.6-21.6-48.3-48.3-48.3C21.6,331.2,0,352.8,0,379.4
		C0,406,21.6,427.7,48.3,427.7z"/>
</g>
</svg>
